M48
; DRILL file {KiCad 7.0.10} date Tue 30 Apr 2024 07:58:39 PM PDT
; FORMAT={-:-/ absolute / inch / decimal}
; #@! TF.CreationDate,2024-04-30T19:58:39-07:00
; #@! TF.GenerationSoftware,Kicad,Pcbnew,7.0.10
; #@! TF.FileFunction,Plated,1,4,PTH
FMAT,2
INCH
; #@! TA.AperFunction,Plated,PTH,ViaDrill
T1C0.0157
; #@! TA.AperFunction,Plated,PTH,ComponentDrill
T2C0.0394
; #@! TA.AperFunction,Plated,PTH,ComponentDrill
T3C0.0469
; #@! TA.AperFunction,Plated,PTH,ComponentDrill
T4C0.0563
; #@! TA.AperFunction,Plated,PTH,ComponentDrill
T5C0.0728
%
G90
G05
T1
X3.72Y-3.444
X3.724Y-3.076
X3.73Y-2.302
X3.732Y-2.696
X3.782Y-4.608
X3.948Y-5.046
X3.948Y-5.14
X3.956Y-4.756
X3.99Y-2.154
X4.0433Y-5.046
X4.0433Y-5.14
X4.1387Y-5.046
X4.1387Y-5.14
X4.144Y-3.026
X4.154Y-4.772
X4.16Y-2.582
X4.16Y-2.676
X4.168Y-2.154
X4.194Y-4.046
X4.194Y-4.1413
X4.194Y-4.2367
X4.194Y-4.332
X4.208Y-4.754
X4.234Y-5.046
X4.234Y-5.14
X4.2553Y-2.582
X4.2553Y-2.676
X4.288Y-4.046
X4.288Y-4.1413
X4.288Y-4.2367
X4.288Y-4.332
X4.294Y-3.002
X4.344Y-2.154
X4.3507Y-2.582
X4.3507Y-2.676
X4.366Y-3.002
X4.384Y-4.864
X4.4Y-3.242
X4.4Y-3.3373
X4.4Y-3.4327
X4.4Y-3.528
X4.422Y-4.608
X4.428Y-3.112
X4.446Y-2.582
X4.446Y-2.676
X4.466Y-4.386
X4.494Y-3.242
X4.494Y-3.3373
X4.494Y-3.4327
X4.494Y-3.528
X4.498Y-2.986
X4.52Y-2.154
X4.538Y-4.79
X4.548Y-3.112
X4.59Y-4.258
X4.608Y-3.878
X4.616Y-4.192
X4.744Y-4.576
X4.75Y-3.208
X4.778Y-3.456
X4.804Y-3.878
X4.822Y-4.698
X4.862Y-3.604
X4.864Y-3.366
X4.962Y-4.392
X4.98Y-3.09
X4.98Y-3.134
X4.996Y-3.004
X5.032Y-4.124
X5.032Y-4.218
X5.058Y-2.582
X5.058Y-2.676
X5.076Y-4.552
X5.088Y-5.316
X5.1Y-2.15
X5.114Y-3.248
X5.118Y-2.998
X5.12Y-5.37
X5.1273Y-4.124
X5.1273Y-4.218
X5.1533Y-2.582
X5.1533Y-2.676
X5.18Y-3.234
X5.182Y-3.752
X5.188Y-4.556
X5.2227Y-4.124
X5.2227Y-4.218
X5.23Y-3.7
X5.2487Y-2.582
X5.2487Y-2.676
X5.258Y-2.998
X5.26Y-3.752
X5.28Y-2.15
X5.292Y-3.794
X5.318Y-4.124
X5.318Y-4.218
X5.32Y-2.99
X5.328Y-4.46
X5.336Y-3.884
X5.344Y-2.582
X5.344Y-2.676
X5.398Y-3.906
X5.45Y-3.395
X5.45Y-3.455
X5.46Y-2.15
X5.468Y-3.924
X5.468Y-4.126
X5.49Y-3.425
X5.53Y-3.395
X5.53Y-3.455
X5.564Y-3.954
X5.566Y-4.018
X5.578Y-3.286
X5.582Y-4.698
X5.584Y-4.13
X5.602Y-3.974
X5.64Y-4.02
X5.68Y-3.84
X5.688Y-3.796
X5.69Y-2.38
X5.69Y-2.434
X5.69Y-2.488
X5.732Y-3.738
X5.762Y-3.898
X5.764Y-3.978
X5.774Y-4.166
X5.776Y-3.214
X5.78Y-3.936
X5.83Y-3.704
X5.83Y-4.02
X5.84Y-3.972
X5.858Y-4.05
X5.88Y-2.584
X5.896Y-3.906
X5.908Y-4.028
X5.916Y-2.6704
X5.916Y-2.7308
X5.916Y-2.7912
X5.916Y-2.8516
X5.916Y-2.912
X5.916Y-2.9724
X5.946Y-4.054
X5.952Y-3.908
X5.955Y-2.584
X5.96Y-3.998
X5.978Y-2.6704
X5.978Y-2.7308
X5.978Y-2.7912
X5.978Y-2.8516
X5.978Y-2.912
X5.978Y-2.9724
X5.992Y-3.374
X5.992Y-3.498
X5.994Y-3.764
X6.008Y-4.168
X6.03Y-2.584
X6.04Y-4.094
X6.042Y-2.67
X6.042Y-2.7304
X6.042Y-2.7908
X6.042Y-2.8512
X6.042Y-2.9116
X6.042Y-2.972
X6.058Y-3.966
X6.06Y-4.046
X6.066Y-4.202
X6.088Y-3.642
X6.094Y-3.774
X6.096Y-4.074
X6.108Y-2.7912
X6.108Y-2.8516
X6.108Y-2.912
X6.108Y-2.9724
X6.114Y-3.448
X6.124Y-3.166
X6.176Y-2.8512
X6.176Y-2.9116
X6.178Y-5.496
X6.182Y-4.686
X6.182Y-4.744
X6.21Y-3.838
X6.21Y-3.886
X6.228Y-4.062
X6.23Y-4.12
X6.236Y-3.796
X6.242Y-3.956
X6.274Y-4.088
X6.284Y-4.178
X6.302Y-3.642
X6.312Y-3.784
X6.312Y-3.835
X6.312Y-3.886
X6.312Y-4.022
X6.32Y-5.386
X6.376Y-3.564
X6.388Y-5.394
X6.388Y-5.444
X6.388Y-5.496
X6.434Y-4.686
X6.472Y-4.686
X6.548Y-5.192
X6.548Y-5.244
X6.548Y-5.586
X6.642Y-5.12
X6.686Y-5.106
X6.69Y-5.304
X6.696Y-5.356
X6.7Y-5.408
X6.708Y-4.526
X6.71Y-4.634
X6.73Y-5.508
X6.744Y-5.174
X6.948Y-4.678
X7.006Y-5.016
X7.044Y-4.678
X7.118Y-5.466
X7.13Y-5.002
T2
X3.8047Y-1.9472
X3.8047Y-2.0472
X3.9047Y-1.9472
X3.9047Y-2.0472
X4.0047Y-1.9472
X4.0047Y-2.0472
X4.03Y-5.72
X4.03Y-5.82
X4.1047Y-1.9472
X4.1047Y-2.0472
X4.13Y-5.72
X4.13Y-5.82
X4.2047Y-1.9472
X4.2047Y-2.0472
X4.23Y-5.72
X4.23Y-5.82
X4.3047Y-1.9472
X4.3047Y-2.0472
X4.33Y-5.72
X4.33Y-5.82
X4.4047Y-1.9472
X4.4047Y-2.0472
X4.43Y-5.72
X4.43Y-5.82
X4.5Y-5.1006
X4.5Y-5.2006
X4.5047Y-1.9472
X4.5047Y-2.0472
X4.53Y-5.72
X4.53Y-5.82
X4.6Y-5.1006
X4.6Y-5.2006
X4.6047Y-1.9472
X4.6047Y-2.0472
X4.63Y-5.72
X4.63Y-5.82
X4.7Y-5.1006
X4.7Y-5.2006
X4.7047Y-1.9472
X4.7047Y-2.0472
X4.73Y-5.72
X4.73Y-5.82
X4.8Y-5.1006
X4.8Y-5.2006
X4.8047Y-1.9472
X4.8047Y-2.0472
X4.9Y-5.1006
X4.9Y-5.2006
X4.9047Y-1.9472
X4.9047Y-2.0472
X5.0Y-5.1006
X5.0Y-5.2006
X5.0Y-5.72
X5.0Y-5.82
X5.0047Y-1.9472
X5.0047Y-2.0472
X5.1Y-5.1006
X5.1Y-5.2006
X5.1Y-5.72
X5.1Y-5.82
X5.1047Y-1.9472
X5.1047Y-2.0472
X5.2Y-5.1006
X5.2Y-5.2006
X5.2Y-5.72
X5.2Y-5.82
X5.2047Y-1.9472
X5.2047Y-2.0472
X5.3Y-5.72
X5.3Y-5.82
X5.3047Y-1.9472
X5.3047Y-2.0472
X5.4Y-5.72
X5.4Y-5.82
X5.4047Y-1.9472
X5.4047Y-2.0472
X5.47Y-5.1
X5.47Y-5.2
X5.5Y-5.72
X5.5Y-5.82
X5.5047Y-1.9472
X5.5047Y-2.0472
X5.57Y-5.1
X5.57Y-5.2
X5.6Y-5.72
X5.6Y-5.82
X5.6047Y-1.9472
X5.6047Y-2.0472
X5.67Y-5.1
X5.67Y-5.2
X5.7Y-5.72
X5.7Y-5.82
X5.7047Y-1.9472
X5.7047Y-2.0472
X5.77Y-5.1
X5.77Y-5.2
X5.87Y-5.1
X5.87Y-5.2
X5.97Y-5.1
X5.97Y-5.2
X5.97Y-5.72
X5.97Y-5.82
X6.07Y-5.1
X6.07Y-5.2
X6.07Y-5.72
X6.07Y-5.82
X6.17Y-5.1
X6.17Y-5.2
X6.17Y-5.72
X6.17Y-5.82
X6.27Y-5.72
X6.27Y-5.82
X6.37Y-5.72
X6.37Y-5.82
X6.3922Y-4.224
X6.47Y-5.72
X6.47Y-5.82
X6.4922Y-4.224
X6.57Y-5.72
X6.57Y-5.82
X6.67Y-5.72
X6.67Y-5.82
T3
X6.7352Y-4.914
X6.7352Y-5.014
T4
X3.295Y-1.9954
X3.295Y-2.2391
X3.295Y-2.4827
X3.295Y-2.7263
X3.295Y-2.97
X3.295Y-3.2136
X3.295Y-3.4573
X3.295Y-3.7009
X3.295Y-3.9445
X3.295Y-4.1882
X3.295Y-4.4318
X3.295Y-4.6754
X3.295Y-4.9191
X3.295Y-5.1627
X3.295Y-5.4064
X3.295Y-5.65
X3.495Y-1.9954
X3.495Y-2.2391
X3.495Y-2.4827
X3.495Y-2.7263
X3.495Y-2.97
X3.495Y-3.2136
X3.495Y-3.4573
X3.495Y-3.7009
X3.495Y-3.9445
X3.495Y-4.1882
X3.495Y-4.4318
X3.495Y-4.6754
X3.495Y-4.9191
X3.495Y-5.1627
X3.495Y-5.4064
X3.495Y-5.65
T5
X6.366Y-1.954
X6.366Y-2.1851
X6.366Y-3.0105
X6.366Y-3.2416
X6.5971Y-1.954
X6.5971Y-2.1851
X6.5971Y-3.0105
X6.5971Y-3.2416
M30
