%TF.GenerationSoftware,KiCad,Pcbnew,7.0.10*%
%TF.CreationDate,2024-05-01T16:26:35-07:00*%
%TF.ProjectId,control,636f6e74-726f-46c2-9e6b-696361645f70,B*%
%TF.SameCoordinates,Original*%
%TF.FileFunction,Copper,L4,Bot*%
%TF.FilePolarity,Positive*%
%FSLAX46Y46*%
G04 Gerber Fmt 4.6, Leading zero omitted, Abs format (unit mm)*
G04 Created by KiCad (PCBNEW 7.0.10) date 2024-05-01 16:26:35*
%MOMM*%
%LPD*%
G01*
G04 APERTURE LIST*
G04 Aperture macros list*
%AMRoundRect*
0 Rectangle with rounded corners*
0 $1 Rounding radius*
0 $2 $3 $4 $5 $6 $7 $8 $9 X,Y pos of 4 corners*
0 Add a 4 corners polygon primitive as box body*
4,1,4,$2,$3,$4,$5,$6,$7,$8,$9,$2,$3,0*
0 Add four circle primitives for the rounded corners*
1,1,$1+$1,$2,$3*
1,1,$1+$1,$4,$5*
1,1,$1+$1,$6,$7*
1,1,$1+$1,$8,$9*
0 Add four rect primitives between the rounded corners*
20,1,$1+$1,$2,$3,$4,$5,0*
20,1,$1+$1,$4,$5,$6,$7,0*
20,1,$1+$1,$6,$7,$8,$9,0*
20,1,$1+$1,$8,$9,$2,$3,0*%
G04 Aperture macros list end*
%TA.AperFunction,ComponentPad*%
%ADD10C,2.145000*%
%TD*%
%TA.AperFunction,ComponentPad*%
%ADD11R,1.700000X1.700000*%
%TD*%
%TA.AperFunction,ComponentPad*%
%ADD12O,1.700000X1.700000*%
%TD*%
%TA.AperFunction,ComponentPad*%
%ADD13C,3.200000*%
%TD*%
%TA.AperFunction,ComponentPad*%
%ADD14RoundRect,0.250000X-0.845000X0.620000X-0.845000X-0.620000X0.845000X-0.620000X0.845000X0.620000X0*%
%TD*%
%TA.AperFunction,ComponentPad*%
%ADD15O,2.190000X1.740000*%
%TD*%
%TA.AperFunction,ViaPad*%
%ADD16C,0.800000*%
%TD*%
%TA.AperFunction,Conductor*%
%ADD17C,0.250000*%
%TD*%
%TA.AperFunction,Conductor*%
%ADD18C,0.500000*%
%TD*%
G04 APERTURE END LIST*
D10*
%TO.P,J27,1,P1*%
%TO.N,Net-(J27-P1-Pad1)*%
X83693000Y-94002800D03*
%TO.P,J27,2,P1*%
X88773000Y-94002800D03*
%TD*%
%TO.P,J26,1,P1*%
%TO.N,Net-(J26-P1-Pad1)*%
X83693000Y-87814400D03*
%TO.P,J26,2,P1*%
X88773000Y-87814400D03*
%TD*%
%TO.P,J25,1,P1*%
%TO.N,Net-(J25-P1-Pad1)*%
X83693000Y-81626000D03*
%TO.P,J25,2,P1*%
X88773000Y-81626000D03*
%TD*%
%TO.P,J24,1,P1*%
%TO.N,Net-(J24-P1-Pad1)*%
X83693000Y-75437600D03*
%TO.P,J24,2,P1*%
X88773000Y-75437600D03*
%TD*%
%TO.P,J23,1,P1*%
%TO.N,Net-(J23-P1-Pad1)*%
X83693000Y-69249200D03*
%TO.P,J23,2,P1*%
X88773000Y-69249200D03*
%TD*%
%TO.P,J22,1,P1*%
%TO.N,Net-(J22-P1-Pad1)*%
X83693000Y-63060800D03*
%TO.P,J22,2,P1*%
X88773000Y-63060800D03*
%TD*%
%TO.P,J21,1,P1*%
%TO.N,Net-(J21-P1-Pad1)*%
X83693000Y-56872400D03*
%TO.P,J21,2,P1*%
X88773000Y-56872400D03*
%TD*%
%TO.P,J20,1,P1*%
%TO.N,Net-(J20-P1-Pad1)*%
X83693000Y-50684000D03*
%TO.P,J20,2,P1*%
X88773000Y-50684000D03*
%TD*%
%TO.P,J19,1,P1*%
%TO.N,Net-(J19-P1-Pad1)*%
X83693000Y-143510000D03*
%TO.P,J19,2,P1*%
X88773000Y-143510000D03*
%TD*%
%TO.P,J18,1,P1*%
%TO.N,Net-(J18-P1-Pad1)*%
X83693000Y-137321600D03*
%TO.P,J18,2,P1*%
X88773000Y-137321600D03*
%TD*%
%TO.P,J17,1,P1*%
%TO.N,Net-(J17-P1-Pad1)*%
X83693000Y-131133200D03*
%TO.P,J17,2,P1*%
X88773000Y-131133200D03*
%TD*%
%TO.P,J16,1,P1*%
%TO.N,Net-(J16-P1-Pad1)*%
X83693000Y-124944800D03*
%TO.P,J16,2,P1*%
X88773000Y-124944800D03*
%TD*%
%TO.P,J15,1,P1*%
%TO.N,Net-(J15-P1-Pad1)*%
X83693000Y-118756400D03*
%TO.P,J15,2,P1*%
X88773000Y-118756400D03*
%TD*%
%TO.P,J14,1,P1*%
%TO.N,Net-(J14-P1-Pad1)*%
X83693000Y-112568000D03*
%TO.P,J14,2,P1*%
X88773000Y-112568000D03*
%TD*%
%TO.P,J13,1,P1*%
%TO.N,Net-(J13-P1-Pad1)*%
X83693000Y-106379600D03*
%TO.P,J13,2,P1*%
X88773000Y-106379600D03*
%TD*%
%TO.P,J12,1,P1*%
%TO.N,Net-(J12-P1-Pad1)*%
X83693000Y-100191200D03*
%TO.P,J12,2,P1*%
X88773000Y-100191200D03*
%TD*%
D11*
%TO.P,JP1,1,A*%
%TO.N,Net-(J11-VTref)*%
X164901800Y-107289600D03*
D12*
%TO.P,JP1,2,B*%
%TO.N,+3.3V*%
X162361800Y-107289600D03*
%TD*%
D13*
%TO.P,J2,1*%
%TO.N,GNDREF*%
X167566400Y-76466600D03*
X161696400Y-76466600D03*
X167566400Y-82336600D03*
X161696400Y-82336600D03*
%TD*%
D14*
%TO.P,J28,1,Pin_1*%
%TO.N,/RS485_B*%
X171074400Y-124815600D03*
D15*
%TO.P,J28,2,Pin_2*%
%TO.N,/RS485_A*%
X171074400Y-127355600D03*
%TD*%
D13*
%TO.P,J1,1*%
%TO.N,Net-(D2-A)*%
X167566400Y-49631600D03*
X161696400Y-49631600D03*
X167566400Y-55501600D03*
X161696400Y-55501600D03*
%TD*%
D11*
%TO.P,J5,1,Pin_1*%
%TO.N,unconnected-(J5-Pin_1-Pad1)*%
X151638000Y-147828000D03*
D12*
%TO.P,J5,2,Pin_2*%
%TO.N,unconnected-(J5-Pin_2-Pad2)*%
X151638000Y-145288000D03*
%TO.P,J5,3,Pin_3*%
%TO.N,unconnected-(J5-Pin_3-Pad3)*%
X154178000Y-147828000D03*
%TO.P,J5,4,Pin_4*%
%TO.N,unconnected-(J5-Pin_4-Pad4)*%
X154178000Y-145288000D03*
%TO.P,J5,5,Pin_5*%
%TO.N,unconnected-(J5-Pin_5-Pad5)*%
X156718000Y-147828000D03*
%TO.P,J5,6,Pin_6*%
%TO.N,COMP_1_LGT_EN*%
X156718000Y-145288000D03*
%TO.P,J5,7,Pin_7*%
%TO.N,unconnected-(J5-Pin_7-Pad7)*%
X159258000Y-147828000D03*
%TO.P,J5,8,Pin_8*%
%TO.N,COMP_2_LGT_EN*%
X159258000Y-145288000D03*
%TO.P,J5,9,Pin_9*%
%TO.N,unconnected-(J5-Pin_9-Pad9)*%
X161798000Y-147828000D03*
%TO.P,J5,10,Pin_10*%
%TO.N,COMP_3_LGT_EN*%
X161798000Y-145288000D03*
%TO.P,J5,11,Pin_11*%
%TO.N,unconnected-(J5-Pin_11-Pad11)*%
X164338000Y-147828000D03*
%TO.P,J5,12,Pin_12*%
%TO.N,COMP_4_LGT_EN*%
X164338000Y-145288000D03*
%TO.P,J5,13,Pin_13*%
%TO.N,unconnected-(J5-Pin_13-Pad13)*%
X166878000Y-147828000D03*
%TO.P,J5,14,Pin_14*%
%TO.N,COMP_5_LGT_EN*%
X166878000Y-145288000D03*
%TO.P,J5,15,Pin_15*%
%TO.N,unconnected-(J5-Pin_15-Pad15)*%
X169418000Y-147828000D03*
%TO.P,J5,16,Pin_16*%
%TO.N,unconnected-(J5-Pin_16-Pad16)*%
X169418000Y-145288000D03*
%TD*%
D11*
%TO.P,J4,1,Pin_1*%
%TO.N,unconnected-(J4-Pin_1-Pad1)*%
X127000000Y-147828000D03*
D12*
%TO.P,J4,2,Pin_2*%
%TO.N,unconnected-(J4-Pin_2-Pad2)*%
X127000000Y-145288000D03*
%TO.P,J4,3,Pin_3*%
%TO.N,unconnected-(J4-Pin_3-Pad3)*%
X129540000Y-147828000D03*
%TO.P,J4,4,Pin_4*%
%TO.N,unconnected-(J4-Pin_4-Pad4)*%
X129540000Y-145288000D03*
%TO.P,J4,5,Pin_5*%
%TO.N,unconnected-(J4-Pin_5-Pad5)*%
X132080000Y-147828000D03*
%TO.P,J4,6,Pin_6*%
%TO.N,MARKER_LGT_EN*%
X132080000Y-145288000D03*
%TO.P,J4,7,Pin_7*%
%TO.N,unconnected-(J4-Pin_7-Pad7)*%
X134620000Y-147828000D03*
%TO.P,J4,8,Pin_8*%
%TO.N,BACKUP_CHIME_EN*%
X134620000Y-145288000D03*
%TO.P,J4,9,Pin_9*%
%TO.N,unconnected-(J4-Pin_9-Pad9)*%
X137160000Y-147828000D03*
%TO.P,J4,10,Pin_10*%
%TO.N,Net-(J4-Pin_10)*%
X137160000Y-145288000D03*
%TO.P,J4,11,Pin_11*%
%TO.N,unconnected-(J4-Pin_11-Pad11)*%
X139700000Y-147828000D03*
%TO.P,J4,12,Pin_12*%
%TO.N,Net-(J4-Pin_10)*%
X139700000Y-145288000D03*
%TO.P,J4,13,Pin_13*%
%TO.N,unconnected-(J4-Pin_13-Pad13)*%
X142240000Y-147828000D03*
%TO.P,J4,14,Pin_14*%
%TO.N,ISECT_D_EN*%
X142240000Y-145288000D03*
%TO.P,J4,15,Pin_15*%
%TO.N,unconnected-(J4-Pin_15-Pad15)*%
X144780000Y-147828000D03*
%TO.P,J4,16,Pin_16*%
%TO.N,ISECT_P_EN*%
X144780000Y-145288000D03*
%TD*%
D11*
%TO.P,J10,1,Pin_1*%
%TO.N,+12V*%
X144900000Y-49460000D03*
D12*
%TO.P,J10,2,Pin_2*%
X144900000Y-52000000D03*
%TO.P,J10,3,Pin_3*%
X142360000Y-49460000D03*
%TO.P,J10,4,Pin_4*%
X142360000Y-52000000D03*
%TO.P,J10,5,Pin_5*%
%TO.N,GNDREF*%
X139820000Y-49460000D03*
%TO.P,J10,6,Pin_6*%
X139820000Y-52000000D03*
%TO.P,J10,7,Pin_7*%
X137280000Y-49460000D03*
%TO.P,J10,8,Pin_8*%
X137280000Y-52000000D03*
%TO.P,J10,9,Pin_9*%
%TO.N,Net-(J10-Pin_9)*%
X134740000Y-49460000D03*
%TO.P,J10,10,Pin_10*%
%TO.N,Net-(J10-Pin_10)*%
X134740000Y-52000000D03*
%TO.P,J10,11,Pin_11*%
%TO.N,CAB_SIGNAL_1*%
X132200000Y-49460000D03*
%TO.P,J10,12,Pin_12*%
%TO.N,CAB_SIGNAL_5*%
X132200000Y-52000000D03*
%TO.P,J10,13,Pin_13*%
%TO.N,CAB_SIGNAL_1*%
X129660000Y-49460000D03*
%TO.P,J10,14,Pin_14*%
%TO.N,CAB_SIGNAL_5*%
X129660000Y-52000000D03*
%TO.P,J10,15,Pin_15*%
%TO.N,CAB_SIGNAL_2*%
X127120000Y-49460000D03*
%TO.P,J10,16,Pin_16*%
%TO.N,CAB_SIGNAL_6*%
X127120000Y-52000000D03*
%TO.P,J10,17,Pin_17*%
%TO.N,CAB_SIGNAL_2*%
X124580000Y-49460000D03*
%TO.P,J10,18,Pin_18*%
%TO.N,CAB_SIGNAL_6*%
X124580000Y-52000000D03*
%TO.P,J10,19,Pin_19*%
%TO.N,CAB_SIGNAL_3*%
X122040000Y-49460000D03*
%TO.P,J10,20,Pin_20*%
%TO.N,CAB_SIGNAL_7*%
X122040000Y-52000000D03*
%TO.P,J10,21,Pin_21*%
%TO.N,CAB_SIGNAL_3*%
X119500000Y-49460000D03*
%TO.P,J10,22,Pin_22*%
%TO.N,CAB_SIGNAL_7*%
X119500000Y-52000000D03*
%TO.P,J10,23,Pin_23*%
%TO.N,CAB_SIGNAL_4*%
X116960000Y-49460000D03*
%TO.P,J10,24,Pin_24*%
%TO.N,CAB_SIGNAL_8*%
X116960000Y-52000000D03*
%TO.P,J10,25,Pin_25*%
%TO.N,CAB_SIGNAL_4*%
X114420000Y-49460000D03*
%TO.P,J10,26,Pin_26*%
%TO.N,CAB_SIGNAL_8*%
X114420000Y-52000000D03*
%TO.P,J10,27,Pin_27*%
%TO.N,unconnected-(J10-Pin_27-Pad27)*%
X111880000Y-49460000D03*
%TO.P,J10,28,Pin_28*%
%TO.N,unconnected-(J10-Pin_28-Pad28)*%
X111880000Y-52000000D03*
%TO.P,J10,29,Pin_29*%
%TO.N,unconnected-(J10-Pin_29-Pad29)*%
X109340000Y-49460000D03*
%TO.P,J10,30,Pin_30*%
%TO.N,unconnected-(J10-Pin_30-Pad30)*%
X109340000Y-52000000D03*
%TO.P,J10,31,Pin_31*%
%TO.N,unconnected-(J10-Pin_31-Pad31)*%
X106800000Y-49460000D03*
%TO.P,J10,32,Pin_32*%
%TO.N,unconnected-(J10-Pin_32-Pad32)*%
X106800000Y-52000000D03*
%TO.P,J10,33,Pin_33*%
%TO.N,GNDREF*%
X104260000Y-49460000D03*
%TO.P,J10,34,Pin_34*%
X104260000Y-52000000D03*
%TO.P,J10,35,Pin_35*%
X101720000Y-49460000D03*
%TO.P,J10,36,Pin_36*%
X101720000Y-52000000D03*
%TO.P,J10,37,Pin_37*%
%TO.N,+12V*%
X99180000Y-49460000D03*
%TO.P,J10,38,Pin_38*%
X99180000Y-52000000D03*
%TO.P,J10,39,Pin_39*%
X96640000Y-49460000D03*
%TO.P,J10,40,Pin_40*%
X96640000Y-52000000D03*
%TD*%
D11*
%TO.P,J3,1,Pin_1*%
%TO.N,unconnected-(J3-Pin_1-Pad1)*%
X102362000Y-147828000D03*
D12*
%TO.P,J3,2,Pin_2*%
%TO.N,unconnected-(J3-Pin_2-Pad2)*%
X102362000Y-145288000D03*
%TO.P,J3,3,Pin_3*%
%TO.N,unconnected-(J3-Pin_3-Pad3)*%
X104902000Y-147828000D03*
%TO.P,J3,4,Pin_4*%
%TO.N,unconnected-(J3-Pin_4-Pad4)*%
X104902000Y-145288000D03*
%TO.P,J3,5,Pin_5*%
%TO.N,unconnected-(J3-Pin_5-Pad5)*%
X107442000Y-147828000D03*
%TO.P,J3,6,Pin_6*%
%TO.N,Net-(J3-Pin_6)*%
X107442000Y-145288000D03*
%TO.P,J3,7,Pin_7*%
%TO.N,unconnected-(J3-Pin_7-Pad7)*%
X109982000Y-147828000D03*
%TO.P,J3,8,Pin_8*%
%TO.N,Net-(J3-Pin_6)*%
X109982000Y-145288000D03*
%TO.P,J3,9,Pin_9*%
%TO.N,unconnected-(J3-Pin_9-Pad9)*%
X112522000Y-147828000D03*
%TO.P,J3,10,Pin_10*%
%TO.N,Net-(J3-Pin_10)*%
X112522000Y-145288000D03*
%TO.P,J3,11,Pin_11*%
%TO.N,unconnected-(J3-Pin_11-Pad11)*%
X115062000Y-147828000D03*
%TO.P,J3,12,Pin_12*%
%TO.N,Net-(J3-Pin_10)*%
X115062000Y-145288000D03*
%TO.P,J3,13,Pin_13*%
%TO.N,unconnected-(J3-Pin_13-Pad13)*%
X117602000Y-147828000D03*
%TO.P,J3,14,Pin_14*%
%TO.N,Net-(J3-Pin_14)*%
X117602000Y-145288000D03*
%TO.P,J3,15,Pin_15*%
%TO.N,unconnected-(J3-Pin_15-Pad15)*%
X120142000Y-147828000D03*
%TO.P,J3,16,Pin_16*%
%TO.N,Net-(J3-Pin_14)*%
X120142000Y-145288000D03*
%TD*%
D11*
%TO.P,J7,1,Pin_1*%
%TO.N,unconnected-(J7-Pin_1-Pad1)*%
X138938000Y-132080000D03*
D12*
%TO.P,J7,2,Pin_2*%
%TO.N,unconnected-(J7-Pin_2-Pad2)*%
X138938000Y-129540000D03*
%TO.P,J7,3,Pin_3*%
%TO.N,unconnected-(J7-Pin_3-Pad3)*%
X141478000Y-132080000D03*
%TO.P,J7,4,Pin_4*%
%TO.N,unconnected-(J7-Pin_4-Pad4)*%
X141478000Y-129540000D03*
%TO.P,J7,5,Pin_5*%
%TO.N,unconnected-(J7-Pin_5-Pad5)*%
X144018000Y-132080000D03*
%TO.P,J7,6,Pin_6*%
%TO.N,AUX_7_EN*%
X144018000Y-129540000D03*
%TO.P,J7,7,Pin_7*%
%TO.N,unconnected-(J7-Pin_7-Pad7)*%
X146558000Y-132080000D03*
%TO.P,J7,8,Pin_8*%
%TO.N,AUX_8_EN*%
X146558000Y-129540000D03*
%TO.P,J7,9,Pin_9*%
%TO.N,unconnected-(J7-Pin_9-Pad9)*%
X149098000Y-132080000D03*
%TO.P,J7,10,Pin_10*%
%TO.N,AUX_9_EN*%
X149098000Y-129540000D03*
%TO.P,J7,11,Pin_11*%
%TO.N,unconnected-(J7-Pin_11-Pad11)*%
X151638000Y-132080000D03*
%TO.P,J7,12,Pin_12*%
%TO.N,AUX_10_EN*%
X151638000Y-129540000D03*
%TO.P,J7,13,Pin_13*%
%TO.N,unconnected-(J7-Pin_13-Pad13)*%
X154178000Y-132080000D03*
%TO.P,J7,14,Pin_14*%
%TO.N,AUX_11_EN*%
X154178000Y-129540000D03*
%TO.P,J7,15,Pin_15*%
%TO.N,unconnected-(J7-Pin_15-Pad15)*%
X156718000Y-132080000D03*
%TO.P,J7,16,Pin_16*%
%TO.N,AUX_12_EN*%
X156718000Y-129540000D03*
%TD*%
D11*
%TO.P,J6,1,Pin_1*%
%TO.N,unconnected-(J6-Pin_1-Pad1)*%
X114300000Y-132096000D03*
D12*
%TO.P,J6,2,Pin_2*%
%TO.N,unconnected-(J6-Pin_2-Pad2)*%
X114300000Y-129556000D03*
%TO.P,J6,3,Pin_3*%
%TO.N,unconnected-(J6-Pin_3-Pad3)*%
X116840000Y-132096000D03*
%TO.P,J6,4,Pin_4*%
%TO.N,unconnected-(J6-Pin_4-Pad4)*%
X116840000Y-129556000D03*
%TO.P,J6,5,Pin_5*%
%TO.N,unconnected-(J6-Pin_5-Pad5)*%
X119380000Y-132096000D03*
%TO.P,J6,6,Pin_6*%
%TO.N,AUX_1_EN*%
X119380000Y-129556000D03*
%TO.P,J6,7,Pin_7*%
%TO.N,unconnected-(J6-Pin_7-Pad7)*%
X121920000Y-132096000D03*
%TO.P,J6,8,Pin_8*%
%TO.N,AUX_2_EN*%
X121920000Y-129556000D03*
%TO.P,J6,9,Pin_9*%
%TO.N,unconnected-(J6-Pin_9-Pad9)*%
X124460000Y-132096000D03*
%TO.P,J6,10,Pin_10*%
%TO.N,AUX_3_EN*%
X124460000Y-129556000D03*
%TO.P,J6,11,Pin_11*%
%TO.N,unconnected-(J6-Pin_11-Pad11)*%
X127000000Y-132096000D03*
%TO.P,J6,12,Pin_12*%
%TO.N,AUX_4_EN*%
X127000000Y-129556000D03*
%TO.P,J6,13,Pin_13*%
%TO.N,unconnected-(J6-Pin_13-Pad13)*%
X129540000Y-132096000D03*
%TO.P,J6,14,Pin_14*%
%TO.N,AUX_5_EN*%
X129540000Y-129556000D03*
%TO.P,J6,15,Pin_15*%
%TO.N,unconnected-(J6-Pin_15-Pad15)*%
X132080000Y-132096000D03*
%TO.P,J6,16,Pin_16*%
%TO.N,AUX_6_EN*%
X132080000Y-129556000D03*
%TD*%
D16*
%TO.N,I2C3_SDA*%
X159664400Y-107289600D03*
%TO.N,I2C3_SCL*%
X159842200Y-103174800D03*
%TO.N,COMP_4_SENSE*%
X126034800Y-111556800D03*
X146354800Y-99009200D03*
%TO.N,COMP_1_SENSE*%
X145592800Y-94945200D03*
X138887200Y-104800400D03*
X138887200Y-99669600D03*
X135331200Y-113284000D03*
%TO.N,GNDREF*%
X160324800Y-97409000D03*
X160324800Y-98704400D03*
X110506932Y-65582800D03*
X108085466Y-65582800D03*
X120497600Y-116230400D03*
X138430000Y-87757000D03*
X107543600Y-130556000D03*
X170434000Y-117703600D03*
X135077200Y-104749600D03*
X111760000Y-82346800D03*
X149352000Y-65633600D03*
X166319200Y-133197600D03*
X148336000Y-100888800D03*
X139446000Y-86995000D03*
X151257000Y-65633600D03*
X160324800Y-96113600D03*
X111760000Y-87189734D03*
X100279200Y-130556000D03*
X106527600Y-105189868D03*
X105664000Y-65582800D03*
X106527600Y-102768400D03*
X141782800Y-119329200D03*
X112928400Y-65582800D03*
X144526000Y-61823600D03*
X126492000Y-79603600D03*
X157022800Y-119024400D03*
X135737600Y-65582800D03*
X105122134Y-130556000D03*
X154076400Y-106730800D03*
X128473200Y-65582800D03*
X154635200Y-92506800D03*
X138430000Y-86233000D03*
X181102000Y-127050800D03*
X111760000Y-84768268D03*
X133316132Y-65582800D03*
X157022800Y-120497600D03*
X122021600Y-98501200D03*
X140462000Y-87757000D03*
X151180800Y-99263200D03*
X111760000Y-89611200D03*
X170383200Y-114960400D03*
X102700668Y-130556000D03*
X106527600Y-110032800D03*
X127812800Y-104749600D03*
X166319200Y-131876800D03*
X130234266Y-104749600D03*
X112318800Y-117043200D03*
X166319200Y-141884400D03*
X134416800Y-96367600D03*
X153162000Y-65633600D03*
X132655732Y-104749600D03*
X130894666Y-65582800D03*
X140462000Y-86233000D03*
X152196800Y-85699600D03*
X122478800Y-119329200D03*
X106527600Y-107611334D03*
X126492000Y-78486000D03*
X115265200Y-121666000D03*
X144475200Y-96418400D03*
X144526000Y-60452000D03*
X144526000Y-63195200D03*
X96062800Y-117043200D03*
%TO.N,+3.3V*%
X150266400Y-73964800D03*
X135737600Y-67970400D03*
X133316132Y-67970400D03*
X180797200Y-138836400D03*
X157734000Y-98704400D03*
X102700668Y-128168400D03*
X153466800Y-72420480D03*
X151841200Y-75498960D03*
X153466800Y-67818000D03*
X152603200Y-105867200D03*
X100279200Y-128168400D03*
X132655732Y-107137200D03*
X108085466Y-67970400D03*
X114147600Y-87189734D03*
X152196800Y-88849200D03*
X114147600Y-82346800D03*
X155143200Y-70896480D03*
X130894666Y-67970400D03*
X112928400Y-67970400D03*
X135077200Y-107137200D03*
X155143200Y-72430640D03*
X150266400Y-72430640D03*
X108915200Y-105189868D03*
X114147600Y-84768268D03*
X150266400Y-75498960D03*
X164388800Y-119024400D03*
X128473200Y-67970400D03*
X171297600Y-131419600D03*
X151841200Y-73964800D03*
X150266400Y-70896480D03*
X153466800Y-73954640D03*
X155143200Y-73964800D03*
X108915200Y-107611334D03*
X130234266Y-107137200D03*
X153466800Y-75488800D03*
X151841200Y-67828160D03*
X151841200Y-69362320D03*
X151841200Y-72430640D03*
X105664000Y-67970400D03*
X127812800Y-107137200D03*
X105122134Y-128168400D03*
X108915200Y-102768400D03*
X150266400Y-67828160D03*
X153466800Y-69352160D03*
X150266400Y-69362320D03*
X155143200Y-75498960D03*
X110506932Y-67970400D03*
X156870400Y-72420480D03*
X163423600Y-119024400D03*
X156870400Y-73954640D03*
X153466800Y-70886320D03*
X149758400Y-99212400D03*
X108915200Y-110032800D03*
X114147600Y-89611200D03*
X151841200Y-70896480D03*
X107543600Y-128168400D03*
%TO.N,+12V*%
X138684000Y-54610000D03*
X114808000Y-54711600D03*
X94589600Y-78130400D03*
X110337600Y-54711600D03*
X129540000Y-54610000D03*
X94792800Y-68478400D03*
X94488000Y-87477600D03*
X101346000Y-54711600D03*
X134112000Y-54610000D03*
X105867200Y-54711600D03*
X94742000Y-58470800D03*
%TO.N,CAB_2_SENSE*%
X131622800Y-95300800D03*
X109067600Y-76250800D03*
X146659600Y-105816400D03*
%TO.N,CAB_1_SENSE*%
X148793200Y-102870000D03*
X115519200Y-79044800D03*
X132842000Y-93980000D03*
X105257600Y-76860400D03*
X112471200Y-79044800D03*
%TO.N,CAB_4_SENSE*%
X158242000Y-104648000D03*
X155295600Y-87579200D03*
X114249200Y-75844400D03*
X155549600Y-80416400D03*
%TO.N,CAB_3_SENSE*%
X141833600Y-104902000D03*
X110896400Y-76250800D03*
X135534400Y-98653600D03*
%TO.N,CAB_6_SENSE*%
X133553200Y-76149200D03*
X152247600Y-95605600D03*
%TO.N,CAB_5_SENSE*%
X154838400Y-103479600D03*
X135128000Y-75946000D03*
%TO.N,CAB_8_SENSE*%
X129895600Y-82499200D03*
X151384000Y-101549200D03*
X126898400Y-76301600D03*
%TO.N,CAB_7_SENSE*%
X131572000Y-82143600D03*
X129997200Y-76149200D03*
X153873200Y-100736400D03*
%TO.N,STOP_LIGHT_SENSE*%
X153416000Y-103987600D03*
X113436400Y-111404400D03*
%TO.N,PARK_BRAKE_SENSE*%
X117043200Y-98501200D03*
X150063200Y-102311200D03*
X137109200Y-99212400D03*
%TO.N,MARKER_LIGHT_SENSE*%
X117246400Y-106476800D03*
X151028400Y-102971600D03*
%TO.N,REVERSE_LIGHT_SENSE*%
X153924000Y-102768400D03*
X116586000Y-108153200D03*
%TO.N,HORN_SENSE*%
X105511600Y-121208800D03*
X142290800Y-100939600D03*
%TO.N,AUX_1_SENSE*%
X141376400Y-102057200D03*
X106883200Y-120751600D03*
%TO.N,AUX_2_SENSE*%
X143256000Y-102108000D03*
X111353600Y-123545600D03*
%TO.N,BATT_SW_SENSE*%
X100482400Y-120802400D03*
X141325600Y-100431600D03*
%TO.N,COMP_2_SENSE*%
X146405600Y-101041200D03*
X131775200Y-115722400D03*
%TO.N,COMP_3_SENSE*%
X128930400Y-115620800D03*
X146812000Y-99974400D03*
%TO.N,COMP_5_SENSE*%
X133604000Y-95300800D03*
X148082000Y-102108000D03*
X120650000Y-81483200D03*
%TO.N,REAR_DOOR_SENSE*%
X123545600Y-85496400D03*
X148082000Y-94081600D03*
%TO.N,AUX_3_SENSE*%
X123494800Y-91541600D03*
X144272000Y-97536000D03*
X154787600Y-95859600D03*
%TO.N,SIDE_DOOR_SENSE*%
X146710400Y-81635600D03*
X141681200Y-83464400D03*
X121361200Y-87782400D03*
X158191200Y-103174800D03*
%TO.N,/MCU/#RESET*%
X160070800Y-92506800D03*
X161950400Y-90525600D03*
%TO.N,AUX_4_EN*%
X160528000Y-136804400D03*
%TO.N,AUX_5_EN*%
X162255200Y-137007600D03*
X129235200Y-135026400D03*
%TO.N,AUX_6_EN*%
X162255200Y-138277600D03*
X130048000Y-136398000D03*
%TO.N,UART5_TX*%
X158394400Y-96418400D03*
X160324800Y-102158800D03*
%TO.N,UART5_RX*%
X158546800Y-100482400D03*
X157734000Y-97485200D03*
%TO.N,AUX_9_EN*%
X162255200Y-139598400D03*
X156921200Y-139598400D03*
%TO.N,AUX_10_EN*%
X170942000Y-139903200D03*
%TO.N,AUX_11_EN*%
X170180000Y-137363200D03*
%TO.N,AUX_12_EN*%
X170078400Y-136042400D03*
%TO.N,I2C3_SDA*%
X169824400Y-129692400D03*
%TO.N,I2C3_SCL*%
X168706800Y-130048000D03*
%TO.N,Net-(J10-Pin_9)*%
X178917600Y-118821200D03*
%TO.N,Net-(J10-Pin_10)*%
X176479200Y-118821200D03*
%TO.N,Net-(U10-INT#)*%
X169926000Y-134721600D03*
X177952400Y-127406400D03*
%TD*%
D17*
%TO.N,I2C3_SDA*%
X169824400Y-129692400D02*
X159753300Y-119621300D01*
X159664400Y-107289600D02*
X159664400Y-119532400D01*
X159664400Y-119532400D02*
X159753300Y-119621300D01*
%TO.N,I2C3_SCL*%
X159842200Y-104165400D02*
X159842200Y-103174800D01*
X158888600Y-105119000D02*
X159842200Y-104165400D01*
%TO.N,COMP_4_SENSE*%
X137160000Y-104215115D02*
X137160000Y-109064808D01*
X143981000Y-101383000D02*
X143981000Y-102408305D01*
X138199715Y-103175400D02*
X137160000Y-104215115D01*
X132408804Y-113816004D02*
X128294004Y-113816004D01*
X140832899Y-103175400D02*
X138199715Y-103175400D01*
X143112905Y-103276400D02*
X140933899Y-103276400D01*
X146354800Y-99009200D02*
X143981000Y-101383000D01*
X137160000Y-109064808D02*
X132408804Y-113816004D01*
X143981000Y-102408305D02*
X143112905Y-103276400D01*
X128294004Y-113816004D02*
X126034800Y-111556800D01*
X140933899Y-103276400D02*
X140832899Y-103175400D01*
%TO.N,COMP_1_SENSE*%
X138887200Y-99669600D02*
X139903200Y-98653600D01*
X138887200Y-109728000D02*
X138887200Y-104800400D01*
X138887200Y-104800400D02*
X138887200Y-104902000D01*
X144474178Y-98653600D02*
X145592800Y-97534978D01*
X139903200Y-98653600D02*
X144474178Y-98653600D01*
X145592800Y-97534978D02*
X145592800Y-94945200D01*
X135331200Y-113284000D02*
X138887200Y-109728000D01*
%TO.N,CAB_2_SENSE*%
X131622800Y-92052392D02*
X128978408Y-89408000D01*
X111621400Y-76172305D02*
X111621400Y-75655000D01*
X120688703Y-89408000D02*
X119430800Y-88150097D01*
X119481600Y-84032505D02*
X111621400Y-76172305D01*
X111621400Y-75655000D02*
X111455200Y-75488800D01*
X131622800Y-95300800D02*
X131622800Y-92052392D01*
X119430800Y-88150097D02*
X119430800Y-84836000D01*
X119430800Y-84836000D02*
X119481600Y-84785200D01*
X111455200Y-75488800D02*
X109829600Y-75488800D01*
X119481600Y-84785200D02*
X119481600Y-84032505D01*
X128978408Y-89408000D02*
X120688703Y-89408000D01*
X109829600Y-75488800D02*
X109067600Y-76250800D01*
%TO.N,CAB_1_SENSE*%
X120149200Y-88232101D02*
X120149200Y-87859309D01*
X120874499Y-88957400D02*
X120149200Y-88232101D01*
X131711002Y-91504198D02*
X129164204Y-88957400D01*
X132842000Y-93980000D02*
X132842000Y-92635196D01*
X116382800Y-79095600D02*
X115519200Y-79044800D01*
X132842000Y-92635196D02*
X131711002Y-91504198D01*
X120149200Y-82862000D02*
X117043200Y-79756000D01*
X117043200Y-79756000D02*
X116382800Y-79095600D01*
X105257600Y-76860400D02*
X107492800Y-79095600D01*
X129164204Y-88957400D02*
X120874499Y-88957400D01*
X120149200Y-87859309D02*
X120149200Y-82862000D01*
X107492800Y-79095600D02*
X112471200Y-79044800D01*
X112471200Y-79044800D02*
X112522000Y-79095600D01*
X115519200Y-79044800D02*
X115519200Y-79095600D01*
%TO.N,CAB_4_SENSE*%
X149148800Y-77216000D02*
X153670000Y-77216000D01*
X156972000Y-93818295D02*
X156972000Y-103378000D01*
X155549600Y-79095600D02*
X155549600Y-80416400D01*
X155295600Y-87579200D02*
X155295600Y-92141895D01*
X116687600Y-73406000D02*
X145338800Y-73406000D01*
X156972000Y-103378000D02*
X158242000Y-104648000D01*
X155295600Y-92141895D02*
X156972000Y-93818295D01*
X114249200Y-75844400D02*
X116687600Y-73406000D01*
X153670000Y-77216000D02*
X155549600Y-79095600D01*
X145338800Y-73406000D02*
X149148800Y-77216000D01*
%TO.N,CAB_3_SENSE*%
X135534400Y-98653600D02*
X135585200Y-98653600D01*
X119786400Y-99212400D02*
X120105600Y-99531600D01*
X117297200Y-96723200D02*
X119786400Y-99212400D01*
X110896400Y-76250800D02*
X117297200Y-82651600D01*
X117297200Y-93167200D02*
X117297200Y-96723200D01*
X133197600Y-99531600D02*
X134707200Y-99531600D01*
X135534400Y-98704400D02*
X135534400Y-98653600D01*
X134707200Y-99531600D02*
X135534400Y-98704400D01*
X135585200Y-98653600D02*
X135534400Y-98704400D01*
X117297200Y-82651600D02*
X117297200Y-93167200D01*
X120105600Y-99531600D02*
X133197600Y-99531600D01*
%TO.N,CAB_6_SENSE*%
X138074400Y-80670400D02*
X133553200Y-76149200D01*
X145484000Y-84937600D02*
X145484000Y-83887604D01*
X151993974Y-95605600D02*
X146202587Y-89814213D01*
X140868400Y-80670400D02*
X138074400Y-80670400D01*
X145484000Y-83887604D02*
X142266796Y-80670400D01*
X152247600Y-95605600D02*
X151993974Y-95605600D01*
X142266796Y-80670400D02*
X140868400Y-80670400D01*
X146202587Y-89814213D02*
X145484000Y-89095626D01*
X145484000Y-89095626D02*
X145484000Y-84937600D01*
%TO.N,CAB_5_SENSE*%
X145934000Y-83701208D02*
X138178792Y-75946000D01*
X154838400Y-97171095D02*
X152421120Y-94753815D01*
X145934000Y-88909230D02*
X145934000Y-83701208D01*
X152421120Y-94753815D02*
X151778585Y-94753815D01*
X154838400Y-103479600D02*
X154838400Y-97171095D01*
X151778585Y-94753815D02*
X145934000Y-88909230D01*
X138178792Y-75946000D02*
X135128000Y-75946000D01*
%TO.N,CAB_8_SENSE*%
X129895600Y-82499200D02*
X129794000Y-82499200D01*
X150418800Y-101549200D02*
X147828000Y-98958400D01*
X144134000Y-84446792D02*
X142340204Y-82652996D01*
X147015200Y-95453200D02*
X146907000Y-95345000D01*
X133654800Y-82078400D02*
X132864600Y-82868600D01*
X144134000Y-85598000D02*
X144134000Y-84446792D01*
X129794000Y-82499200D02*
X129895600Y-82600800D01*
X130163400Y-82868600D02*
X129895600Y-82600800D01*
X147370800Y-95808800D02*
X147015200Y-95453200D01*
X147370800Y-96164400D02*
X147370800Y-95808800D01*
X142340204Y-82652996D02*
X141765608Y-82078400D01*
X141765608Y-82078400D02*
X136601200Y-82078400D01*
X132864600Y-82868600D02*
X130163400Y-82868600D01*
X146907000Y-92427814D02*
X144358993Y-89879807D01*
X151384000Y-101549200D02*
X150418800Y-101549200D01*
X144134000Y-89654814D02*
X144134000Y-85598000D01*
X136601200Y-82078400D02*
X133654800Y-82078400D01*
X147370800Y-98501200D02*
X147370800Y-96164400D01*
X129895600Y-82600800D02*
X129895600Y-82499200D01*
X146907000Y-93370400D02*
X146907000Y-92427814D01*
X147828000Y-98958400D02*
X147370800Y-98501200D01*
X144358993Y-89879807D02*
X144134000Y-89654814D01*
X146907000Y-95345000D02*
X146907000Y-93370400D01*
%TO.N,CAB_7_SENSE*%
X144584000Y-84260396D02*
X141952004Y-81628400D01*
X153873200Y-100736400D02*
X150257095Y-100736400D01*
X141952004Y-81628400D02*
X133604000Y-81628400D01*
X147357000Y-92241418D02*
X146607591Y-91492009D01*
X132087200Y-81628400D02*
X131572000Y-82143600D01*
X147357000Y-94880600D02*
X147357000Y-92241418D01*
X146607591Y-91492009D02*
X144584000Y-89468418D01*
X144584000Y-89468418D02*
X144584000Y-86969600D01*
X150257095Y-100736400D02*
X147828000Y-98307305D01*
X147828000Y-98307305D02*
X147828000Y-95351600D01*
X144584000Y-86969600D02*
X144584000Y-84260396D01*
X133604000Y-81628400D02*
X132087200Y-81628400D01*
X147828000Y-95351600D02*
X147357000Y-94880600D01*
%TO.N,STOP_LIGHT_SENSE*%
X120901208Y-111404400D02*
X126844208Y-117347400D01*
X153416000Y-103987600D02*
X153466800Y-103987600D01*
X146018497Y-104894800D02*
X151062396Y-104894800D01*
X153416000Y-104038400D02*
X153416000Y-103987600D01*
X126844208Y-117347400D02*
X133565897Y-117347400D01*
X113436400Y-111404400D02*
X120901208Y-111404400D01*
X133565897Y-117347400D02*
X146018497Y-104894800D01*
X152325196Y-103632000D02*
X153060400Y-103632000D01*
X153466800Y-103987600D02*
X153365200Y-104089200D01*
X151062396Y-104894800D02*
X152325196Y-103632000D01*
X153060400Y-103632000D02*
X153416000Y-103987600D01*
%TO.N,PARK_BRAKE_SENSE*%
X117043200Y-98501200D02*
X118523600Y-99981600D01*
X137109200Y-99212400D02*
X137058400Y-99263200D01*
X136340000Y-99981600D02*
X137109200Y-99212400D01*
X118523600Y-99981600D02*
X136296400Y-99981600D01*
X136296400Y-99981600D02*
X136340000Y-99981600D01*
%TO.N,MARKER_LIGHT_SENSE*%
X145517996Y-103733600D02*
X150266400Y-103733600D01*
X127217000Y-116447400D02*
X133193105Y-116447400D01*
X137884598Y-111366998D02*
X145517996Y-103733600D01*
X137884598Y-111755907D02*
X137884598Y-111366998D01*
X150266400Y-103733600D02*
X151028400Y-102971600D01*
X133193105Y-116447400D02*
X137884598Y-111755907D01*
X117246400Y-106476800D02*
X127217000Y-116447400D01*
%TO.N,REVERSE_LIGHT_SENSE*%
X116586000Y-108153200D02*
X118286404Y-108153200D01*
X133379501Y-116897400D02*
X136314451Y-113962450D01*
X153924000Y-102768400D02*
X153822400Y-102768400D01*
X152552400Y-102768400D02*
X153924000Y-102768400D01*
X150876000Y-104444800D02*
X152552400Y-102768400D01*
X145832101Y-104444800D02*
X150876000Y-104444800D01*
X136314451Y-113962450D02*
X145832101Y-104444800D01*
X126072202Y-115938998D02*
X127030604Y-116897400D01*
X127030604Y-116897400D02*
X133379501Y-116897400D01*
X118286404Y-108153200D02*
X126072202Y-115938998D01*
%TO.N,HORN_SENSE*%
X140787800Y-101156600D02*
X140512800Y-100881600D01*
X103022400Y-118059200D02*
X103022400Y-118719600D01*
X142290800Y-100939600D02*
X142073800Y-101156600D01*
X105511600Y-121208800D02*
X105460800Y-121158000D01*
X103022400Y-103726400D02*
X103022400Y-118059200D01*
X142073800Y-101156600D02*
X140787800Y-101156600D01*
X103022400Y-118719600D02*
X105511600Y-121208800D01*
X140512800Y-100881600D02*
X105867200Y-100881600D01*
X105867200Y-100881600D02*
X103022400Y-103726400D01*
%TO.N,AUX_1_SENSE*%
X107289600Y-120294400D02*
X107289600Y-102514400D01*
X140326404Y-101331600D02*
X140601404Y-101606600D01*
X108472400Y-101331600D02*
X140326404Y-101331600D01*
X106883200Y-120700800D02*
X107289600Y-120294400D01*
X107289600Y-102514400D02*
X108472400Y-101331600D01*
X140601404Y-101606600D02*
X140925800Y-101606600D01*
X140925800Y-101606600D02*
X141376400Y-102057200D01*
%TO.N,AUX_2_SENSE*%
X142581800Y-102782200D02*
X143256000Y-102108000D01*
X111353600Y-123494800D02*
X111593800Y-123254600D01*
X111593800Y-107840600D02*
X117652800Y-101781600D01*
X111593800Y-123254600D02*
X111593800Y-107840600D01*
X141076095Y-102782200D02*
X142581800Y-102782200D01*
X140075495Y-101781600D02*
X141076095Y-102782200D01*
X117652800Y-101781600D02*
X140075495Y-101781600D01*
%TO.N,BATT_SW_SENSE*%
X103733600Y-100431600D02*
X100177600Y-103987600D01*
X100177600Y-120497600D02*
X100482400Y-120802400D01*
X100177600Y-103987600D02*
X100177600Y-120497600D01*
X141325600Y-100431600D02*
X103733600Y-100431600D01*
%TO.N,COMP_2_SENSE*%
X144881000Y-102781097D02*
X143485697Y-104176400D01*
X143485697Y-104176400D02*
X140561107Y-104176400D01*
X138572507Y-104075400D02*
X138162200Y-104485707D01*
X144881000Y-101755792D02*
X144881000Y-102781097D01*
X138162200Y-109335400D02*
X131775200Y-115722400D01*
X145595592Y-101041200D02*
X144881000Y-101755792D01*
X140561107Y-104176400D02*
X140460107Y-104075400D01*
X140460107Y-104075400D02*
X138572507Y-104075400D01*
X146405600Y-101041200D02*
X145595592Y-101041200D01*
X131930732Y-115516068D02*
X131775200Y-115671600D01*
X138162200Y-104485707D02*
X138162200Y-109335400D01*
%TO.N,COMP_3_SENSE*%
X140747503Y-103726400D02*
X140646503Y-103625400D01*
X138386111Y-103625400D02*
X137617200Y-104394311D01*
X146025996Y-99974400D02*
X144431000Y-101569396D01*
X143299301Y-103726400D02*
X140747503Y-103726400D01*
X137617200Y-104394311D02*
X137617200Y-109244004D01*
X137617200Y-109244004D02*
X132396802Y-114464402D01*
X130851495Y-115620800D02*
X128930400Y-115620800D01*
X144431000Y-101569396D02*
X144431000Y-102594701D01*
X140646503Y-103625400D02*
X138386111Y-103625400D01*
X146812000Y-99974400D02*
X146025996Y-99974400D01*
X132396802Y-114464402D02*
X132007893Y-114464402D01*
X132007893Y-114464402D02*
X130851495Y-115620800D01*
X144431000Y-102594701D02*
X143299301Y-103726400D01*
%TO.N,COMP_5_SENSE*%
X121060895Y-88507400D02*
X129350600Y-88507400D01*
X129350600Y-88507400D02*
X133604000Y-92760800D01*
X120650000Y-86207600D02*
X120599200Y-86258400D01*
X120599200Y-86258400D02*
X120599200Y-88045705D01*
X120650000Y-81483200D02*
X120650000Y-86207600D01*
X133604000Y-92760800D02*
X133604000Y-95300800D01*
X120599200Y-88045705D02*
X121060895Y-88507400D01*
%TO.N,REAR_DOOR_SENSE*%
X142697200Y-81737200D02*
X142138400Y-81178400D01*
X145034000Y-89282022D02*
X145034000Y-87020400D01*
X148082000Y-92330022D02*
X145034000Y-89282022D01*
X142138400Y-81178400D02*
X128676400Y-81178400D01*
X145034000Y-87020400D02*
X145034000Y-84074000D01*
X127050800Y-81178400D02*
X123545600Y-84683600D01*
X123545600Y-84683600D02*
X123545600Y-85445600D01*
X145034000Y-84074000D02*
X142697200Y-81737200D01*
X148082000Y-94081600D02*
X148082000Y-92330022D01*
X128676400Y-81178400D02*
X127050800Y-81178400D01*
%TO.N,AUX_3_SENSE*%
X134264400Y-99081600D02*
X134264400Y-98898295D01*
X135501695Y-97661000D02*
X144197800Y-97661000D01*
X144322800Y-97536000D02*
X144272000Y-97586800D01*
X134264400Y-98898295D02*
X135501695Y-97661000D01*
X132711200Y-99081600D02*
X134264400Y-99081600D01*
X144272000Y-97536000D02*
X144322800Y-97536000D01*
X131013200Y-99060000D02*
X132689600Y-99060000D01*
X144197800Y-97661000D02*
X144272000Y-97586800D01*
X123494800Y-91541600D02*
X131013200Y-99060000D01*
X144272000Y-97586800D02*
X144272000Y-97536000D01*
X132689600Y-99060000D02*
X132711200Y-99081600D01*
%TO.N,SIDE_DOOR_SENSE*%
X159359600Y-99263200D02*
X159359600Y-102006400D01*
X138074400Y-82528400D02*
X140745200Y-82528400D01*
X140745200Y-82528400D02*
X141681200Y-83464400D01*
X157276800Y-90738105D02*
X159359600Y-92820905D01*
X121361200Y-87782400D02*
X128587196Y-87782400D01*
X146710400Y-81635600D02*
X151180800Y-81635600D01*
X159359600Y-92820905D02*
X159359600Y-99263200D01*
X133762598Y-82606998D02*
X133841196Y-82528400D01*
X157276800Y-87731600D02*
X157276800Y-90738105D01*
X159308800Y-102057200D02*
X158191200Y-103174800D01*
X151180800Y-81635600D02*
X157276800Y-87731600D01*
X128587196Y-87782400D02*
X133762598Y-82606998D01*
X133841196Y-82528400D02*
X138074400Y-82528400D01*
X159359600Y-102006400D02*
X159308800Y-102057200D01*
%TO.N,/MCU/#RESET*%
X160070800Y-92405200D02*
X161950400Y-90525600D01*
X160070800Y-92506800D02*
X160070800Y-92405200D01*
%TO.N,AUX_4_EN*%
X132586699Y-136804400D02*
X128175000Y-132392701D01*
X160528000Y-136804400D02*
X132586699Y-136804400D01*
X128175000Y-130731000D02*
X127000000Y-129556000D01*
X128175000Y-132392701D02*
X128175000Y-130731000D01*
%TO.N,AUX_5_EN*%
X161733400Y-137529400D02*
X132601800Y-137529400D01*
X130149600Y-135077200D02*
X130098800Y-135026400D01*
X130098800Y-135026400D02*
X129235200Y-135026400D01*
X162255200Y-137007600D02*
X161733400Y-137529400D01*
X129235200Y-135026400D02*
X129438400Y-135026400D01*
X132601800Y-137529400D02*
X130149600Y-135077200D01*
%TO.N,AUX_6_EN*%
X130149600Y-136347200D02*
X130200400Y-136347200D01*
X130606800Y-136347200D02*
X130251200Y-136347200D01*
X130048000Y-136398000D02*
X130149600Y-136347200D01*
X130251200Y-136347200D02*
X130048000Y-136398000D01*
X132537200Y-138277600D02*
X130606800Y-136347200D01*
X162255200Y-138277600D02*
X132537200Y-138277600D01*
%TO.N,AUX_9_EN*%
X162255200Y-139598400D02*
X156921200Y-139598400D01*
%TO.N,AUX_10_EN*%
X156478699Y-136042400D02*
X152958800Y-132522501D01*
X167081200Y-136042400D02*
X156478699Y-136042400D01*
X152958800Y-130860800D02*
X151638000Y-129540000D01*
X152958800Y-132522501D02*
X152958800Y-130860800D01*
X170942000Y-139903200D02*
X167081200Y-136042400D01*
%TO.N,AUX_11_EN*%
X155353000Y-130715000D02*
X154178000Y-129540000D01*
X167596400Y-134779600D02*
X167596400Y-131470400D01*
X167596400Y-131470400D02*
X166841000Y-130715000D01*
X170180000Y-137363200D02*
X167596400Y-134779600D01*
X166841000Y-130715000D02*
X155353000Y-130715000D01*
%TO.N,AUX_12_EN*%
X168046400Y-134010400D02*
X168046400Y-131013200D01*
X170078400Y-136042400D02*
X168046400Y-134010400D01*
X168046400Y-131013200D02*
X166573200Y-129540000D01*
X166573200Y-129540000D02*
X156718000Y-129540000D01*
%TO.N,I2C3_SCL*%
X168706800Y-130048000D02*
X158888600Y-120229800D01*
X158888600Y-120229800D02*
X158888600Y-105119000D01*
D18*
%TO.N,Net-(J10-Pin_9)*%
X136040000Y-48160000D02*
X134740000Y-49460000D01*
X178917600Y-80877600D02*
X146200000Y-48160000D01*
X146200000Y-48160000D02*
X136040000Y-48160000D01*
X178917600Y-118821200D02*
X178917600Y-80877600D01*
%TO.N,Net-(J10-Pin_10)*%
X148082000Y-53543200D02*
X176479200Y-81940400D01*
X176479200Y-81940400D02*
X176479200Y-118821200D01*
X136283200Y-53543200D02*
X148082000Y-53543200D01*
X134740000Y-52000000D02*
X136283200Y-53543200D01*
D17*
%TO.N,Net-(U10-INT#)*%
X177952400Y-131267200D02*
X177952400Y-127406400D01*
X174498000Y-134721600D02*
X177952400Y-131267200D01*
X169926000Y-134721600D02*
X174498000Y-134721600D01*
%TD*%
M02*
