%TF.GenerationSoftware,KiCad,Pcbnew,7.0.10*%
%TF.CreationDate,2024-04-30T00:05:15-07:00*%
%TF.ProjectId,control,636f6e74-726f-46c2-9e6b-696361645f70,A*%
%TF.SameCoordinates,Original*%
%TF.FileFunction,Paste,Top*%
%TF.FilePolarity,Positive*%
%FSLAX46Y46*%
G04 Gerber Fmt 4.6, Leading zero omitted, Abs format (unit mm)*
G04 Created by KiCad (PCBNEW 7.0.10) date 2024-04-30 00:05:15*
%MOMM*%
%LPD*%
G01*
G04 APERTURE LIST*
G04 Aperture macros list*
%AMRoundRect*
0 Rectangle with rounded corners*
0 $1 Rounding radius*
0 $2 $3 $4 $5 $6 $7 $8 $9 X,Y pos of 4 corners*
0 Add a 4 corners polygon primitive as box body*
4,1,4,$2,$3,$4,$5,$6,$7,$8,$9,$2,$3,0*
0 Add four circle primitives for the rounded corners*
1,1,$1+$1,$2,$3*
1,1,$1+$1,$4,$5*
1,1,$1+$1,$6,$7*
1,1,$1+$1,$8,$9*
0 Add four rect primitives between the rounded corners*
20,1,$1+$1,$2,$3,$4,$5,0*
20,1,$1+$1,$4,$5,$6,$7,0*
20,1,$1+$1,$6,$7,$8,$9,0*
20,1,$1+$1,$8,$9,$2,$3,0*%
G04 Aperture macros list end*
%ADD10RoundRect,0.250000X0.450000X-0.350000X0.450000X0.350000X-0.450000X0.350000X-0.450000X-0.350000X0*%
%ADD11R,1.300000X1.550000*%
%ADD12RoundRect,0.250000X-0.450000X0.350000X-0.450000X-0.350000X0.450000X-0.350000X0.450000X0.350000X0*%
%ADD13RoundRect,0.150000X-0.150000X0.725000X-0.150000X-0.725000X0.150000X-0.725000X0.150000X0.725000X0*%
%ADD14RoundRect,0.250000X-0.337500X-0.475000X0.337500X-0.475000X0.337500X0.475000X-0.337500X0.475000X0*%
%ADD15RoundRect,0.250000X-0.350000X-0.450000X0.350000X-0.450000X0.350000X0.450000X-0.350000X0.450000X0*%
%ADD16RoundRect,0.250000X0.475000X-0.337500X0.475000X0.337500X-0.475000X0.337500X-0.475000X-0.337500X0*%
%ADD17RoundRect,0.250000X0.350000X0.450000X-0.350000X0.450000X-0.350000X-0.450000X0.350000X-0.450000X0*%
%ADD18RoundRect,0.150000X-0.650000X-0.150000X0.650000X-0.150000X0.650000X0.150000X-0.650000X0.150000X0*%
%ADD19RoundRect,0.250000X-0.475000X0.337500X-0.475000X-0.337500X0.475000X-0.337500X0.475000X0.337500X0*%
%ADD20RoundRect,0.150000X-0.150000X0.650000X-0.150000X-0.650000X0.150000X-0.650000X0.150000X0.650000X0*%
%ADD21R,2.400000X0.740000*%
%ADD22RoundRect,0.075000X-0.662500X-0.075000X0.662500X-0.075000X0.662500X0.075000X-0.662500X0.075000X0*%
%ADD23RoundRect,0.075000X-0.075000X-0.662500X0.075000X-0.662500X0.075000X0.662500X-0.075000X0.662500X0*%
%ADD24RoundRect,0.250000X0.337500X0.475000X-0.337500X0.475000X-0.337500X-0.475000X0.337500X-0.475000X0*%
%ADD25RoundRect,0.250000X-1.500000X-0.650000X1.500000X-0.650000X1.500000X0.650000X-1.500000X0.650000X0*%
%ADD26RoundRect,0.200000X-0.900000X-0.200000X0.900000X-0.200000X0.900000X0.200000X-0.900000X0.200000X0*%
%ADD27RoundRect,0.250000X-1.275000X-1.125000X1.275000X-1.125000X1.275000X1.125000X-1.275000X1.125000X0*%
%ADD28R,1.000000X1.600000*%
%ADD29R,3.000000X2.500000*%
%ADD30RoundRect,0.150000X0.150000X-0.650000X0.150000X0.650000X-0.150000X0.650000X-0.150000X-0.650000X0*%
%ADD31RoundRect,0.250000X0.450000X-0.325000X0.450000X0.325000X-0.450000X0.325000X-0.450000X-0.325000X0*%
%ADD32RoundRect,0.250000X-0.550000X1.500000X-0.550000X-1.500000X0.550000X-1.500000X0.550000X1.500000X0*%
%ADD33RoundRect,0.237500X-0.237500X0.287500X-0.237500X-0.287500X0.237500X-0.287500X0.237500X0.287500X0*%
G04 APERTURE END LIST*
D10*
%TO.C,R88*%
X132987100Y-79888500D03*
X132987100Y-77888500D03*
%TD*%
D11*
%TO.C,SW1*%
X145963200Y-65824200D03*
X145963200Y-73774200D03*
X141463200Y-65824200D03*
X141463200Y-73774200D03*
%TD*%
D12*
%TO.C,R44*%
X100000000Y-117000000D03*
X100000000Y-119000000D03*
%TD*%
D13*
%TO.C,U2*%
X162098200Y-113899400D03*
X160828200Y-113899400D03*
X159558200Y-113899400D03*
X158288200Y-113899400D03*
X158288200Y-119049400D03*
X159558200Y-119049400D03*
X160828200Y-119049400D03*
X162098200Y-119049400D03*
%TD*%
D14*
%TO.C,C13*%
X118425000Y-103021700D03*
X120500000Y-103021700D03*
%TD*%
D15*
%TO.C,R4*%
X151704800Y-77774800D03*
X153704800Y-77774800D03*
%TD*%
D14*
%TO.C,C32*%
X125708500Y-89154000D03*
X127783500Y-89154000D03*
%TD*%
D12*
%TO.C,R8*%
X148437600Y-86426800D03*
X148437600Y-88426800D03*
%TD*%
D10*
%TO.C,R19*%
X113500000Y-103500000D03*
X113500000Y-101500000D03*
%TD*%
%TO.C,R35*%
X114844300Y-58388000D03*
X114844300Y-56388000D03*
%TD*%
D16*
%TO.C,C8*%
X150672800Y-88464300D03*
X150672800Y-86389300D03*
%TD*%
D14*
%TO.C,C22*%
X119866500Y-62738000D03*
X121941500Y-62738000D03*
%TD*%
D17*
%TO.C,R76*%
X98774000Y-67092300D03*
X96774000Y-67092300D03*
%TD*%
%TO.C,R53*%
X98774000Y-83721500D03*
X96774000Y-83721500D03*
%TD*%
%TO.C,R37*%
X103750000Y-121250000D03*
X101750000Y-121250000D03*
%TD*%
D10*
%TO.C,R86*%
X128524000Y-79888500D03*
X128524000Y-77888500D03*
%TD*%
%TO.C,R55*%
X138684000Y-58150000D03*
X138684000Y-56150000D03*
%TD*%
D17*
%TO.C,R54*%
X98774000Y-57658000D03*
X96774000Y-57658000D03*
%TD*%
D10*
%TO.C,R17*%
X115750000Y-111750000D03*
X115750000Y-109750000D03*
%TD*%
D14*
%TO.C,C2*%
X158016700Y-70566200D03*
X160091700Y-70566200D03*
%TD*%
D10*
%TO.C,R91*%
X119126000Y-88376000D03*
X119126000Y-86376000D03*
%TD*%
D18*
%TO.C,U8*%
X109780000Y-81661000D03*
X109780000Y-82931000D03*
X109780000Y-84201000D03*
X109780000Y-85471000D03*
X109780000Y-86741000D03*
X109780000Y-88011000D03*
X109780000Y-89281000D03*
X109780000Y-90551000D03*
X116280000Y-90551000D03*
X116280000Y-89281000D03*
X116280000Y-88011000D03*
X116280000Y-86741000D03*
X116280000Y-85471000D03*
X116280000Y-84201000D03*
X116280000Y-82931000D03*
X116280000Y-81661000D03*
%TD*%
D10*
%TO.C,R15*%
X105845400Y-58388000D03*
X105845400Y-56388000D03*
%TD*%
%TO.C,R78*%
X134112000Y-58150000D03*
X134112000Y-56150000D03*
%TD*%
D19*
%TO.C,C28*%
X135607100Y-117212500D03*
X135607100Y-119287500D03*
%TD*%
D15*
%TO.C,R2*%
X160391600Y-123494800D03*
X162391600Y-123494800D03*
%TD*%
%TO.C,R45*%
X112792000Y-72390000D03*
X114792000Y-72390000D03*
%TD*%
D10*
%TO.C,R74*%
X131826000Y-58150000D03*
X131826000Y-56150000D03*
%TD*%
D17*
%TO.C,R48*%
X121904000Y-65024000D03*
X119904000Y-65024000D03*
%TD*%
D16*
%TO.C,C26*%
X124460000Y-80285500D03*
X124460000Y-78210500D03*
%TD*%
D14*
%TO.C,C15*%
X119888000Y-67310000D03*
X121963000Y-67310000D03*
%TD*%
D15*
%TO.C,R25*%
X107442000Y-72390000D03*
X109442000Y-72390000D03*
%TD*%
D17*
%TO.C,R24*%
X120462500Y-109804300D03*
X118462500Y-109804300D03*
%TD*%
D12*
%TO.C,R40*%
X110632000Y-117037500D03*
X110632000Y-119037500D03*
%TD*%
D20*
%TO.C,U9*%
X135700000Y-102561000D03*
X134430000Y-102561000D03*
X133160000Y-102561000D03*
X131890000Y-102561000D03*
X130620000Y-102561000D03*
X129350000Y-102561000D03*
X128080000Y-102561000D03*
X126810000Y-102561000D03*
X126810000Y-109061000D03*
X128080000Y-109061000D03*
X129350000Y-109061000D03*
X130620000Y-109061000D03*
X131890000Y-109061000D03*
X133160000Y-109061000D03*
X134430000Y-109061000D03*
X135700000Y-109061000D03*
%TD*%
D21*
%TO.C,J11*%
X162845200Y-94284800D03*
X166745200Y-94284800D03*
X162845200Y-95554800D03*
X166745200Y-95554800D03*
X162845200Y-96824800D03*
X166745200Y-96824800D03*
X162845200Y-98094800D03*
X166745200Y-98094800D03*
X162845200Y-99364800D03*
X166745200Y-99364800D03*
%TD*%
D17*
%TO.C,R81*%
X98774000Y-71809400D03*
X96774000Y-71809400D03*
%TD*%
D10*
%TO.C,R73*%
X127254000Y-58150000D03*
X127254000Y-56150000D03*
%TD*%
D17*
%TO.C,R5*%
X164830000Y-102666800D03*
X162830000Y-102666800D03*
%TD*%
D15*
%TO.C,R85*%
X126889000Y-72136000D03*
X128889000Y-72136000D03*
%TD*%
D22*
%TO.C,U3*%
X144848500Y-99240000D03*
X144848500Y-99740000D03*
X144848500Y-100240000D03*
X144848500Y-100740000D03*
X144848500Y-101240000D03*
X144848500Y-101740000D03*
X144848500Y-102240000D03*
X144848500Y-102740000D03*
X144848500Y-103240000D03*
X144848500Y-103740000D03*
X144848500Y-104240000D03*
X144848500Y-104740000D03*
X144848500Y-105240000D03*
X144848500Y-105740000D03*
X144848500Y-106240000D03*
X144848500Y-106740000D03*
D23*
X146761000Y-108652500D03*
X147261000Y-108652500D03*
X147761000Y-108652500D03*
X148261000Y-108652500D03*
X148761000Y-108652500D03*
X149261000Y-108652500D03*
X149761000Y-108652500D03*
X150261000Y-108652500D03*
X150761000Y-108652500D03*
X151261000Y-108652500D03*
X151761000Y-108652500D03*
X152261000Y-108652500D03*
X152761000Y-108652500D03*
X153261000Y-108652500D03*
X153761000Y-108652500D03*
X154261000Y-108652500D03*
D22*
X156173500Y-106740000D03*
X156173500Y-106240000D03*
X156173500Y-105740000D03*
X156173500Y-105240000D03*
X156173500Y-104740000D03*
X156173500Y-104240000D03*
X156173500Y-103740000D03*
X156173500Y-103240000D03*
X156173500Y-102740000D03*
X156173500Y-102240000D03*
X156173500Y-101740000D03*
X156173500Y-101240000D03*
X156173500Y-100740000D03*
X156173500Y-100240000D03*
X156173500Y-99740000D03*
X156173500Y-99240000D03*
D23*
X154261000Y-97327500D03*
X153761000Y-97327500D03*
X153261000Y-97327500D03*
X152761000Y-97327500D03*
X152261000Y-97327500D03*
X151761000Y-97327500D03*
X151261000Y-97327500D03*
X150761000Y-97327500D03*
X150261000Y-97327500D03*
X149761000Y-97327500D03*
X149261000Y-97327500D03*
X148761000Y-97327500D03*
X148261000Y-97327500D03*
X147761000Y-97327500D03*
X147261000Y-97327500D03*
X146761000Y-97327500D03*
%TD*%
D17*
%TO.C,R90*%
X127746000Y-91186000D03*
X125746000Y-91186000D03*
%TD*%
%TO.C,R59*%
X98774000Y-79045800D03*
X96774000Y-79045800D03*
%TD*%
%TO.C,R20*%
X120462500Y-100760900D03*
X118462500Y-100760900D03*
%TD*%
D10*
%TO.C,R89*%
X121412000Y-91932000D03*
X121412000Y-89932000D03*
%TD*%
D14*
%TO.C,C19*%
X113212500Y-123250000D03*
X115287500Y-123250000D03*
%TD*%
D15*
%TO.C,R69*%
X134250000Y-111500000D03*
X136250000Y-111500000D03*
%TD*%
D17*
%TO.C,R46*%
X121904000Y-60452000D03*
X119904000Y-60452000D03*
%TD*%
D10*
%TO.C,R50*%
X140970000Y-58150000D03*
X140970000Y-56150000D03*
%TD*%
%TO.C,R34*%
X112594600Y-58388000D03*
X112594600Y-56388000D03*
%TD*%
%TO.C,R33*%
X117094000Y-58388000D03*
X117094000Y-56388000D03*
%TD*%
D15*
%TO.C,R1*%
X165805700Y-113724400D03*
X167805700Y-113724400D03*
%TD*%
D24*
%TO.C,C6*%
X142769500Y-96393000D03*
X140694500Y-96393000D03*
%TD*%
D19*
%TO.C,C30*%
X135218700Y-77851000D03*
X135218700Y-79926000D03*
%TD*%
D25*
%TO.C,D2*%
X150154000Y-49987200D03*
X155154000Y-49987200D03*
%TD*%
D18*
%TO.C,U4*%
X104390000Y-102086000D03*
X104390000Y-103356000D03*
X104390000Y-104626000D03*
X104390000Y-105896000D03*
X104390000Y-107166000D03*
X104390000Y-108436000D03*
X104390000Y-109706000D03*
X104390000Y-110976000D03*
X110890000Y-110976000D03*
X110890000Y-109706000D03*
X110890000Y-108436000D03*
X110890000Y-107166000D03*
X110890000Y-105896000D03*
X110890000Y-104626000D03*
X110890000Y-103356000D03*
X110890000Y-102086000D03*
%TD*%
D15*
%TO.C,R9*%
X96750000Y-109750000D03*
X98750000Y-109750000D03*
%TD*%
D17*
%TO.C,R66*%
X127746000Y-82550000D03*
X125746000Y-82550000D03*
%TD*%
D10*
%TO.C,R56*%
X143256000Y-58150000D03*
X143256000Y-56150000D03*
%TD*%
D12*
%TO.C,R68*%
X122174000Y-78248000D03*
X122174000Y-80248000D03*
%TD*%
D17*
%TO.C,R52*%
X98774000Y-76708000D03*
X96774000Y-76708000D03*
%TD*%
D20*
%TO.C,U7*%
X136398000Y-63425000D03*
X135128000Y-63425000D03*
X133858000Y-63425000D03*
X132588000Y-63425000D03*
X131318000Y-63425000D03*
X130048000Y-63425000D03*
X128778000Y-63425000D03*
X127508000Y-63425000D03*
X127508000Y-69925000D03*
X128778000Y-69925000D03*
X130048000Y-69925000D03*
X131318000Y-69925000D03*
X132588000Y-69925000D03*
X133858000Y-69925000D03*
X135128000Y-69925000D03*
X136398000Y-69925000D03*
%TD*%
D14*
%TO.C,C4*%
X165768200Y-116359400D03*
X167843200Y-116359400D03*
%TD*%
D15*
%TO.C,R61*%
X132096000Y-72136000D03*
X134096000Y-72136000D03*
%TD*%
D10*
%TO.C,R77*%
X129540000Y-58150000D03*
X129540000Y-56150000D03*
%TD*%
D17*
%TO.C,R80*%
X98774000Y-86059300D03*
X96774000Y-86059300D03*
%TD*%
D19*
%TO.C,C29*%
X130755600Y-77851000D03*
X130755600Y-79926000D03*
%TD*%
D17*
%TO.C,R39*%
X106500000Y-123750000D03*
X104500000Y-123750000D03*
%TD*%
D15*
%TO.C,R31*%
X95500000Y-141250000D03*
X97500000Y-141250000D03*
%TD*%
D17*
%TO.C,R75*%
X98774000Y-74168000D03*
X96774000Y-74168000D03*
%TD*%
D15*
%TO.C,R11*%
X96750000Y-105250000D03*
X98750000Y-105250000D03*
%TD*%
D17*
%TO.C,R58*%
X98774000Y-60016600D03*
X96774000Y-60016600D03*
%TD*%
D26*
%TO.C,U1*%
X156565600Y-63359600D03*
X156565600Y-64499600D03*
X156565600Y-65639600D03*
D27*
X161190600Y-64114600D03*
X161190600Y-67164600D03*
X164540600Y-64114600D03*
X164540600Y-67164600D03*
D26*
X156565600Y-66779600D03*
X156565600Y-67919600D03*
%TD*%
D10*
%TO.C,R94*%
X124000000Y-119250000D03*
X124000000Y-117250000D03*
%TD*%
D14*
%TO.C,C25*%
X125708500Y-84836000D03*
X127783500Y-84836000D03*
%TD*%
%TO.C,C3*%
X165768200Y-119024400D03*
X167843200Y-119024400D03*
%TD*%
D19*
%TO.C,C34*%
X130964300Y-117212500D03*
X130964300Y-119287500D03*
%TD*%
D10*
%TO.C,R49*%
X136398000Y-58150000D03*
X136398000Y-56150000D03*
%TD*%
D15*
%TO.C,R87*%
X129556000Y-74295000D03*
X131556000Y-74295000D03*
%TD*%
D10*
%TO.C,R96*%
X128642900Y-119250000D03*
X128642900Y-117250000D03*
%TD*%
D14*
%TO.C,C11*%
X118425000Y-112065100D03*
X120500000Y-112065100D03*
%TD*%
D17*
%TO.C,R82*%
X98774000Y-69450900D03*
X96774000Y-69450900D03*
%TD*%
D10*
%TO.C,R14*%
X103595700Y-58388000D03*
X103595700Y-56388000D03*
%TD*%
%TO.C,R16*%
X101346000Y-58388000D03*
X101346000Y-56388000D03*
%TD*%
D17*
%TO.C,R57*%
X98774000Y-62375100D03*
X96774000Y-62375100D03*
%TD*%
D19*
%TO.C,C24*%
X144145000Y-77851000D03*
X144145000Y-79926000D03*
%TD*%
D15*
%TO.C,R30*%
X95500000Y-139166700D03*
X97500000Y-139166700D03*
%TD*%
D14*
%TO.C,C1*%
X153140500Y-54305200D03*
X155215500Y-54305200D03*
%TD*%
D28*
%TO.C,Y1*%
X140716000Y-93545000D03*
X138176000Y-93545000D03*
D29*
X139446000Y-86995000D03*
%TD*%
D15*
%TO.C,R63*%
X134763000Y-74422000D03*
X136763000Y-74422000D03*
%TD*%
D10*
%TO.C,R13*%
X108095100Y-58388000D03*
X108095100Y-56388000D03*
%TD*%
D17*
%TO.C,R60*%
X98774000Y-81383700D03*
X96774000Y-81383700D03*
%TD*%
D20*
%TO.C,U5*%
X114173000Y-63552000D03*
X112903000Y-63552000D03*
X111633000Y-63552000D03*
X110363000Y-63552000D03*
X109093000Y-63552000D03*
X107823000Y-63552000D03*
X106553000Y-63552000D03*
X105283000Y-63552000D03*
X105283000Y-70052000D03*
X106553000Y-70052000D03*
X107823000Y-70052000D03*
X109093000Y-70052000D03*
X110363000Y-70052000D03*
X111633000Y-70052000D03*
X112903000Y-70052000D03*
X114173000Y-70052000D03*
%TD*%
D10*
%TO.C,R70*%
X137928600Y-119250000D03*
X137928600Y-117250000D03*
%TD*%
%TO.C,R21*%
X115750000Y-106500000D03*
X115750000Y-104500000D03*
%TD*%
D14*
%TO.C,C31*%
X125708500Y-93472000D03*
X127783500Y-93472000D03*
%TD*%
D19*
%TO.C,C23*%
X139681900Y-77851000D03*
X139681900Y-79926000D03*
%TD*%
%TO.C,C33*%
X126321400Y-117212500D03*
X126321400Y-119287500D03*
%TD*%
D14*
%TO.C,C7*%
X151159300Y-93370400D03*
X153234300Y-93370400D03*
%TD*%
D30*
%TO.C,U6*%
X99610000Y-132750000D03*
X100880000Y-132750000D03*
X102150000Y-132750000D03*
X103420000Y-132750000D03*
X104690000Y-132750000D03*
X105960000Y-132750000D03*
X107230000Y-132750000D03*
X108500000Y-132750000D03*
X108500000Y-126250000D03*
X107230000Y-126250000D03*
X105960000Y-126250000D03*
X104690000Y-126250000D03*
X103420000Y-126250000D03*
X102150000Y-126250000D03*
X100880000Y-126250000D03*
X99610000Y-126250000D03*
%TD*%
D16*
%TO.C,C18*%
X108500000Y-119075000D03*
X108500000Y-117000000D03*
%TD*%
%TO.C,C17*%
X103000000Y-119037500D03*
X103000000Y-116962500D03*
%TD*%
D14*
%TO.C,C21*%
X119866500Y-58166000D03*
X121941500Y-58166000D03*
%TD*%
D15*
%TO.C,R47*%
X110236000Y-74676000D03*
X112236000Y-74676000D03*
%TD*%
D17*
%TO.C,R83*%
X98774000Y-90735000D03*
X96774000Y-90735000D03*
%TD*%
D14*
%TO.C,C12*%
X118425000Y-98500000D03*
X120500000Y-98500000D03*
%TD*%
D17*
%TO.C,R18*%
X120462500Y-114326000D03*
X118462500Y-114326000D03*
%TD*%
D15*
%TO.C,R95*%
X128750000Y-111500000D03*
X130750000Y-111500000D03*
%TD*%
D17*
%TO.C,R43*%
X100500000Y-123750000D03*
X98500000Y-123750000D03*
%TD*%
D15*
%TO.C,R27*%
X104140000Y-74422000D03*
X106140000Y-74422000D03*
%TD*%
%TO.C,R71*%
X131750000Y-113750000D03*
X133750000Y-113750000D03*
%TD*%
D19*
%TO.C,C27*%
X140250000Y-117212500D03*
X140250000Y-119287500D03*
%TD*%
D31*
%TO.C,D1*%
X146151600Y-88451800D03*
X146151600Y-86401800D03*
%TD*%
D32*
%TO.C,C35*%
X149352000Y-56939200D03*
X149352000Y-62339200D03*
%TD*%
D17*
%TO.C,R51*%
X98774000Y-64733700D03*
X96774000Y-64733700D03*
%TD*%
D16*
%TO.C,C20*%
X97750000Y-119037500D03*
X97750000Y-116962500D03*
%TD*%
D10*
%TO.C,R36*%
X110344900Y-58388000D03*
X110344900Y-56388000D03*
%TD*%
D15*
%TO.C,R93*%
X126000000Y-114000000D03*
X128000000Y-114000000D03*
%TD*%
D17*
%TO.C,R79*%
X98774000Y-93072900D03*
X96774000Y-93072900D03*
%TD*%
D15*
%TO.C,R32*%
X95500000Y-135000000D03*
X97500000Y-135000000D03*
%TD*%
D17*
%TO.C,R42*%
X115250000Y-125500000D03*
X113250000Y-125500000D03*
%TD*%
%TO.C,R26*%
X121925500Y-69596000D03*
X119925500Y-69596000D03*
%TD*%
D15*
%TO.C,R12*%
X96750000Y-107500000D03*
X98750000Y-107500000D03*
%TD*%
D17*
%TO.C,R7*%
X165896800Y-89814400D03*
X163896800Y-89814400D03*
%TD*%
D10*
%TO.C,R64*%
X141913400Y-79888500D03*
X141913400Y-77888500D03*
%TD*%
D14*
%TO.C,C5*%
X136122500Y-96393000D03*
X138197500Y-96393000D03*
%TD*%
D10*
%TO.C,R62*%
X137450300Y-79888500D03*
X137450300Y-77888500D03*
%TD*%
%TO.C,R41*%
X109250000Y-123500000D03*
X109250000Y-121500000D03*
%TD*%
D12*
%TO.C,R38*%
X105250000Y-117000000D03*
X105250000Y-119000000D03*
%TD*%
D10*
%TO.C,R72*%
X133285700Y-119250000D03*
X133285700Y-117250000D03*
%TD*%
%TO.C,R67*%
X119126000Y-83042000D03*
X119126000Y-81042000D03*
%TD*%
D17*
%TO.C,R28*%
X121925500Y-74168000D03*
X119925500Y-74168000D03*
%TD*%
D14*
%TO.C,C10*%
X137798900Y-101092000D03*
X139873900Y-101092000D03*
%TD*%
D10*
%TO.C,R23*%
X113500000Y-108750000D03*
X113500000Y-106750000D03*
%TD*%
D17*
%TO.C,R92*%
X127746000Y-87122000D03*
X125746000Y-87122000D03*
%TD*%
D14*
%TO.C,C16*%
X119888000Y-71882000D03*
X121963000Y-71882000D03*
%TD*%
D10*
%TO.C,R3*%
X157124400Y-77758800D03*
X157124400Y-75758800D03*
%TD*%
D15*
%TO.C,R29*%
X95500000Y-137083300D03*
X97500000Y-137083300D03*
%TD*%
%TO.C,R10*%
X96766000Y-103000000D03*
X98766000Y-103000000D03*
%TD*%
D10*
%TO.C,R65*%
X121412000Y-85836000D03*
X121412000Y-83836000D03*
%TD*%
D14*
%TO.C,C9*%
X137798900Y-103251000D03*
X139873900Y-103251000D03*
%TD*%
D17*
%TO.C,R84*%
X98774000Y-88397200D03*
X96774000Y-88397200D03*
%TD*%
D14*
%TO.C,C14*%
X118425000Y-107543400D03*
X120500000Y-107543400D03*
%TD*%
D17*
%TO.C,R22*%
X120462500Y-105282600D03*
X118462500Y-105282600D03*
%TD*%
D33*
%TO.C,FB1*%
X140309600Y-105297000D03*
X140309600Y-107047000D03*
%TD*%
M02*
